{"title":"Batman.Bad.Blood.2016.1080p.WEB-DL.DD5.1.H264-FGT","uid":13263139,"size":2985142507,"categoryP":"video","categoryS":"hd___movies","magnet":"?xt=urn:btih:42c13f46fa7b054fcd3fb0d4923dce8bdc162908&amp;dn=Batman.Bad.Blood.2016.1080p.WEB-DL.DD5.1.H264-FGT&amp;tr=udp%3A%2F%2Ftracker.leechers-paradise.org%3A6969&amp;tr=udp%3A%2F%2Fzer0day.ch%3A1337&amp;tr=udp%3A%2F%2Fopen.demonii.com%3A1337&amp;tr=udp%3A%2F%2Ftracker.coppersurfer.tk%3A6969&amp;tr=udp%3A%2F%2Fexodus.desync.com%3A6969","seeders":0,"leechers":0,"uploader":"TheRival","files":4,"time":1453308157,"description":"Screens: \nhttp://extraimago.com/image/xLO \nhttp://extraimago.com/image/xLS \nhttp://extraimago.com/image/xLq\r\n\r\nVideo\r\nID                                       : 1\r\nFormat                                   : AVC\r\nFormat/Info                              : Advanced Video Codec\r\nFormat profile                           :   \r\nFormat settings, CABAC                   : Yes\r\nFormat settings, ReFrames                : 4 frames\r\nCodec ID                                 : V_MPEG4/ISO/AVC\r\nDuration                                 : 1h 12mn\r\nBit rate                                 : 4 985 Kbps\r\nWidth                                    : 1 916 pixels\r\nHeight                                   : 1 076 pixels\r\nDisplay aspect ratio                     : 16:9\r\nFrame rate mode                          : Constant\r\nFrame rate                               : 23.976 fps\r\nColor space                              : YUV\r\nChroma subsampling                       : 4:2:0\r\nBit depth                                : 8 bits\r\nScan type                                : Progressive\r\nBits/(Pixel*Frame)                       : 0.101\r\nStream size                              : 2.53 GiB (91%)\r\nTitle                                    : Batman.Bad.Blood.2016.1080p.WEB-DL.DD5.1.H264-FGT\r\nLanguage                                 : English\r\nDefault                                  : Yes\r\nForced                                   : No\r\nColor range                              : Limited\r\nColor primaries                          : BT.709\r\nTransfer characteristics                 : BT.709\r\nMatrix coefficients                      : BT.709\r\n\r\nAudio\r\nID                                       : 2\r\nFormat                                   : AC-3\r\nFormat/Info                              : Audio Coding 3\r\nMode extension                           : CM (complete main)\r\nFormat settings, Endianness              : Big\r\nCodec ID                                 : A_AC3\r\nDuration                                 : 1h 12mn\r\nBit rate mode                            : Constant\r\nBit rate                                 : 384 Kbps\r\nChannel(s)                               : 6 channels\r\nChannel positions                        : Front: L C R, Side: L R, LFE\r\nSampling rate                            : 48.0 KHz\r\nFrame rate                               : 31.250 fps (1536 spf)\r\nCompression mode                         : Lossy\r\nStream size                              : 200 MiB (7%)\r\nTitle                                    : Batman.Bad.Blood.2016.1080p.WEB-DL.DD5.1.H264-FGT\r\nLanguage                                 : English\r\nDefault                                  : Yes\r\nForced                                   : No\r\n\r\nText\r\nID                                       : 3\r\nFormat                                   : UTF-8\r\nCodec ID                                 : S_TEXT/UTF8\r\nCodec ID/Info                            : UTF-8 Plain Text\r\nLanguage                                 : English\r\nDefault                                  : Yes\r\nForced                                   : No\r\n\r\nMenu\r\n00:00:00.000                             : en:1\r\n00:05:12.000                             : en:2\r\n00:12:40.000                             : en:3\r\n00:19:06.000                             : en:4\r\n00:29:44.000                             : en:5\r\n00:40:32.000                             : en:6\r\n00:48:04.000                             : en:7\r\n01:00:29.000                             : en:8\r\n01:09:32.000                             : en:9","torrent":{"xt":"urn:btih:42c13f46fa7b054fcd3fb0d4923dce8bdc162908","amp;dn":"Batman.Bad.Blood.2016.1080p.WEB-DL.DD5.1.H264-FGT","amp;tr":["udp%3A%2F%2Ftracker.leechers-paradise.org%3A6969","udp%3A%2F%2Fzer0day.ch%3A1337","udp%3A%2F%2Fopen.demonii.com%3A1337","udp%3A%2F%2Ftracker.coppersurfer.tk%3A6969","udp%3A%2F%2Fexodus.desync.com%3A6969"],"infoHash":"42c13f46fa7b054fcd3fb0d4923dce8bdc162908","infoHashBuffer":{"type":"Buffer","data":[66,193,63,70,250,123,5,79,205,63,176,212,146,61,206,139,220,22,41,8]},"announce":[],"urlList":[]}}